<mxfile host="app.diagrams.net" modified="2023-05-18T03:09:58.659Z" agent="Mozilla/5.0 (Macintosh; Intel Mac OS X 10_15_7) AppleWebKit/537.36 (KHTML, like Gecko) Chrome/113.0.0.0 Safari/537.36" version="21.1.1" etag="YiCJr4CoxqPtV0s9R97l" type="github">
  <diagram name="第 1 页" id="N6BhizEwr2g-t-_necTo">
    <mxGraphModel>
      <root>
        <mxCell id="0" />
        <mxCell id="1" parent="0" />
      </root>
    </mxGraphModel>
  </diagram>
</mxfile>
